<mxfile host="app.diagrams.net" agent="Mozilla/5.0 (Windows NT 10.0; Win64; x64) AppleWebKit/537.36 (KHTML, like Gecko) Chrome/114.0.0.0 Safari/537.36 Edg/114.0.1823.67" version="24.7.16">
  <diagram name="Page-1" id="KHO6wtGwkNKIyM5RQNJQ">
    <mxGraphModel dx="1348" dy="1055" grid="0" gridSize="10" guides="1" tooltips="1" connect="1" arrows="1" fold="1" page="0" pageScale="1" pageWidth="850" pageHeight="1100" math="0" shadow="0">
      <root>
        <mxCell id="0" />
        <mxCell id="1" parent="0" />
        <mxCell id="zQZUVGZ_dEIv89TSGe0q-3" value="Region" style="points=[[0,0],[0.25,0],[0.5,0],[0.75,0],[1,0],[1,0.25],[1,0.5],[1,0.75],[1,1],[0.75,1],[0.5,1],[0.25,1],[0,1],[0,0.75],[0,0.5],[0,0.25]];outlineConnect=0;gradientColor=none;html=1;whiteSpace=wrap;fontSize=12;fontStyle=0;container=1;pointerEvents=0;collapsible=0;recursiveResize=0;shape=mxgraph.aws4.group;grIcon=mxgraph.aws4.group_region;strokeColor=#00A4A6;fillColor=none;verticalAlign=top;align=left;spacingLeft=30;fontColor=#147EBA;dashed=1;" vertex="1" parent="1">
          <mxGeometry x="-372" y="-92" width="925" height="590" as="geometry" />
        </mxCell>
        <mxCell id="zQZUVGZ_dEIv89TSGe0q-17" value="" style="shape=link;html=1;rounded=0;fontSize=12;startSize=8;endSize=8;curved=1;" edge="1" parent="zQZUVGZ_dEIv89TSGe0q-3" target="zQZUVGZ_dEIv89TSGe0q-10">
          <mxGeometry width="100" relative="1" as="geometry">
            <mxPoint x="433" y="258" as="sourcePoint" />
            <mxPoint x="533" y="258" as="targetPoint" />
          </mxGeometry>
        </mxCell>
        <mxCell id="zQZUVGZ_dEIv89TSGe0q-18" value="Label the arrows to indicate interactions, such as &quot;Secrets Rotation&quot; for Lambda interacting with Secrets Manager or &quot;Monitor Logs&quot; for CloudWatch tracking Lambda logs." style="text;html=1;align=center;verticalAlign=middle;whiteSpace=wrap;rounded=0;fontSize=16;" vertex="1" parent="zQZUVGZ_dEIv89TSGe0q-3">
          <mxGeometry x="222" y="544" width="672" height="30" as="geometry" />
        </mxCell>
        <mxCell id="zQZUVGZ_dEIv89TSGe0q-20" value="" style="endArrow=classic;html=1;rounded=0;fontSize=12;startSize=8;endSize=8;curved=1;entryX=1;entryY=0.5;entryDx=0;entryDy=0;entryPerimeter=0;" edge="1" parent="zQZUVGZ_dEIv89TSGe0q-3" target="zQZUVGZ_dEIv89TSGe0q-11">
          <mxGeometry relative="1" as="geometry">
            <mxPoint x="374" y="232" as="sourcePoint" />
            <mxPoint x="437" y="194" as="targetPoint" />
            <Array as="points">
              <mxPoint x="512" y="157" />
            </Array>
          </mxGeometry>
        </mxCell>
        <mxCell id="zQZUVGZ_dEIv89TSGe0q-21" value="secrets rotation" style="edgeLabel;resizable=0;html=1;fontSize=12;;align=center;verticalAlign=middle;" connectable="0" vertex="1" parent="zQZUVGZ_dEIv89TSGe0q-20">
          <mxGeometry relative="1" as="geometry" />
        </mxCell>
        <mxCell id="zQZUVGZ_dEIv89TSGe0q-22" value="Source" style="edgeLabel;resizable=0;html=1;fontSize=12;;align=left;verticalAlign=bottom;" connectable="0" vertex="1" parent="zQZUVGZ_dEIv89TSGe0q-20">
          <mxGeometry x="-1" relative="1" as="geometry" />
        </mxCell>
        <mxCell id="zQZUVGZ_dEIv89TSGe0q-23" value="" style="outlineConnect=0;dashed=0;verticalLabelPosition=bottom;verticalAlign=top;align=center;html=1;shape=mxgraph.aws3.iam;fillColor=#759C3E;gradientColor=none;" vertex="1" parent="zQZUVGZ_dEIv89TSGe0q-3">
          <mxGeometry x="76" y="187" width="42" height="81" as="geometry" />
        </mxCell>
        <mxCell id="zQZUVGZ_dEIv89TSGe0q-24" value="" style="sketch=0;points=[[0,0,0],[0.25,0,0],[0.5,0,0],[0.75,0,0],[1,0,0],[0,1,0],[0.25,1,0],[0.5,1,0],[0.75,1,0],[1,1,0],[0,0.25,0],[0,0.5,0],[0,0.75,0],[1,0.25,0],[1,0.5,0],[1,0.75,0]];outlineConnect=0;fontColor=#232F3E;fillColor=#E7157B;strokeColor=#ffffff;dashed=0;verticalLabelPosition=bottom;verticalAlign=top;align=center;html=1;fontSize=12;fontStyle=0;aspect=fixed;shape=mxgraph.aws4.resourceIcon;resIcon=mxgraph.aws4.sns;" vertex="1" parent="zQZUVGZ_dEIv89TSGe0q-3">
          <mxGeometry x="544" y="351" width="78" height="78" as="geometry" />
        </mxCell>
        <mxCell id="zQZUVGZ_dEIv89TSGe0q-27" value="" style="endArrow=none;dashed=1;html=1;dashPattern=1 3;strokeWidth=2;rounded=0;fontSize=12;startSize=8;endSize=8;curved=1;" edge="1" parent="zQZUVGZ_dEIv89TSGe0q-3" target="zQZUVGZ_dEIv89TSGe0q-7">
          <mxGeometry width="50" height="50" relative="1" as="geometry">
            <mxPoint x="598" y="351" as="sourcePoint" />
            <mxPoint x="648" y="301" as="targetPoint" />
          </mxGeometry>
        </mxCell>
        <mxCell id="zQZUVGZ_dEIv89TSGe0q-4" value="Availability zone" style="sketch=0;outlineConnect=0;gradientColor=none;html=1;whiteSpace=wrap;fontSize=12;fontStyle=0;shape=mxgraph.aws4.group;grIcon=mxgraph.aws4.group_availability_zone;strokeColor=#545B64;fillColor=none;verticalAlign=top;align=left;spacingLeft=30;fontColor=#545B64;dashed=1;" vertex="1" parent="zQZUVGZ_dEIv89TSGe0q-3">
          <mxGeometry x="17" y="45" width="869" height="491" as="geometry" />
        </mxCell>
        <mxCell id="zQZUVGZ_dEIv89TSGe0q-19" style="edgeStyle=none;curved=1;rounded=0;orthogonalLoop=1;jettySize=auto;html=1;fontSize=12;startSize=8;endSize=8;" edge="1" parent="zQZUVGZ_dEIv89TSGe0q-3" source="zQZUVGZ_dEIv89TSGe0q-18" target="zQZUVGZ_dEIv89TSGe0q-4">
          <mxGeometry relative="1" as="geometry" />
        </mxCell>
        <mxCell id="zQZUVGZ_dEIv89TSGe0q-37" value="" style="editableCssRules=.*;html=1;shape=image;verticalLabelPosition=bottom;labelBackgroundColor=#ffffff;verticalAlign=top;aspect=fixed;imageAspect=0;image=data:image/svg+xml,PHN2ZyB4bWxucz0iaHR0cDovL3d3dy53My5vcmcvMjAwMC9zdmciIHhtbG5zOnY9Imh0dHBzOi8vdmVjdGEuaW8vbmFubyIgd2lkdGg9IjE2LjQyMDAwMDA3NjI5Mzk0NSIgaGVpZ2h0PSIyMC4wNDk5OTkyMzcwNjA1NDciIGZpbGwtcnVsZT0iZXZlbm9kZCIgdmlld0JveD0iMCAwIDE2LjQyMDAwMDA3NjI5Mzk0NSAyMC4wNDk5OTkyMzcwNjA1NDciPiYjeGE7CTxzdHlsZSB0eXBlPSJ0ZXh0L2NzcyI+JiN4YTsJLnN0MHtmaWxsOiM0Mjg1ZjQ7fSYjeGE7CS5zdDF7ZmlsbDojNjY5ZGY2O30mI3hhOwk8L3N0eWxlPiYjeGE7CTxwYXRoIGNsYXNzPSJzdDEiIGQ9Ik04LjIxIDBMMCAzLjQydjUuNjNjMCA1LjA2IDMuNSA5LjggOC4yMSAxMSA0LjcxLTEuMTUgOC4yMS01Ljg5IDguMjEtMTAuOTVWMy40MnptMCAzLjc5YTIuNjMgMi42MyAwIDAgMSAxLjAwNSA1LjA2QTIuNjMgMi42MyAwIDAgMSA2LjM1IDQuNTZhMi42MyAyLjYzIDAgMCAxIDEuODYtLjc3em00LjExIDExLjE1YTguNjQgOC42NCAwIDAgMS00LjExIDIuOTMgOC42NCA4LjY0IDAgMCAxLTQuMTEtMi45M3YtMi4yNWMwLTEuNjcgMi43NC0yLjUyIDQuMTEtMi41MnM0LjExLjg1IDQuMTEgMi41MnoiLz4mI3hhOwk8cGF0aCBjbGFzcz0ic3QwIiBkPSJNOC4yMSAwdjMuNzlhMi42MyAyLjYzIDAgMSAxIDAgNS4yNnYxLjEyYzEuMzcgMCA0LjExLjg1IDQuMTEgMi41MnYyLjI1YTguNjQgOC42NCAwIDAgMS00LjExIDIuOTNWMjBjNC43MS0xLjE1IDguMjEtNS44OSA4LjIxLTEwLjk1VjMuNDJ6Ii8+JiN4YTs8L3N2Zz4=;" vertex="1" parent="zQZUVGZ_dEIv89TSGe0q-3">
          <mxGeometry x="56" y="176.25" width="82" height="102.5" as="geometry" />
        </mxCell>
        <mxCell id="zQZUVGZ_dEIv89TSGe0q-5" value="AWS Secrets Manager" style="sketch=0;outlineConnect=0;fontColor=#232F3E;gradientColor=none;strokeColor=#ffffff;fillColor=#232F3E;dashed=0;verticalLabelPosition=middle;verticalAlign=bottom;align=center;html=1;whiteSpace=wrap;fontSize=10;fontStyle=1;spacing=3;shape=mxgraph.aws4.productIcon;prIcon=mxgraph.aws4.secrets_manager;" vertex="1" parent="1">
          <mxGeometry x="-7" y="141" width="80" height="110" as="geometry" />
        </mxCell>
        <mxCell id="zQZUVGZ_dEIv89TSGe0q-6" value="" style="outlineConnect=0;dashed=0;verticalLabelPosition=bottom;verticalAlign=top;align=center;html=1;shape=mxgraph.aws3.kms;fillColor=#759C3E;gradientColor=none;" vertex="1" parent="1">
          <mxGeometry x="-148" y="141" width="76.5" height="93" as="geometry" />
        </mxCell>
        <mxCell id="zQZUVGZ_dEIv89TSGe0q-7" value="" style="outlineConnect=0;dashed=0;verticalLabelPosition=bottom;verticalAlign=top;align=center;html=1;shape=mxgraph.aws3.rds;fillColor=#2E73B8;gradientColor=none;" vertex="1" parent="1">
          <mxGeometry x="290" y="137" width="72" height="81" as="geometry" />
        </mxCell>
        <mxCell id="zQZUVGZ_dEIv89TSGe0q-8" value="Amazon API Gateway" style="sketch=0;outlineConnect=0;fontColor=#232F3E;gradientColor=none;strokeColor=#ffffff;fillColor=#232F3E;dashed=0;verticalLabelPosition=middle;verticalAlign=bottom;align=center;html=1;whiteSpace=wrap;fontSize=10;fontStyle=1;spacing=3;shape=mxgraph.aws4.productIcon;prIcon=mxgraph.aws4.api_gateway;" vertex="1" parent="1">
          <mxGeometry x="-108" y="-14.5" width="80" height="110" as="geometry" />
        </mxCell>
        <mxCell id="zQZUVGZ_dEIv89TSGe0q-10" value="" style="outlineConnect=0;dashed=0;verticalLabelPosition=bottom;verticalAlign=top;align=center;html=1;shape=mxgraph.aws3.cloudwatch;fillColor=#759C3E;gradientColor=none;" vertex="1" parent="1">
          <mxGeometry x="260" y="-14.5" width="82.5" height="93" as="geometry" />
        </mxCell>
        <mxCell id="zQZUVGZ_dEIv89TSGe0q-11" value="" style="outlineConnect=0;dashed=0;verticalLabelPosition=bottom;verticalAlign=top;align=center;html=1;shape=mxgraph.aws3.lambda_function;fillColor=#F58534;gradientColor=none;" vertex="1" parent="1">
          <mxGeometry x="6" y="-8" width="69" height="72" as="geometry" />
        </mxCell>
        <mxCell id="zQZUVGZ_dEIv89TSGe0q-14" value="" style="shape=link;html=1;rounded=0;fontSize=12;startSize=8;endSize=8;curved=1;" edge="1" parent="1" target="zQZUVGZ_dEIv89TSGe0q-7">
          <mxGeometry width="100" relative="1" as="geometry">
            <mxPoint x="73" y="182" as="sourcePoint" />
            <mxPoint x="173" y="182" as="targetPoint" />
          </mxGeometry>
        </mxCell>
        <mxCell id="zQZUVGZ_dEIv89TSGe0q-15" value="" style="shape=link;html=1;rounded=0;fontSize=12;startSize=8;endSize=8;curved=1;" edge="1" parent="1" source="zQZUVGZ_dEIv89TSGe0q-6">
          <mxGeometry width="100" relative="1" as="geometry">
            <mxPoint x="42" y="204" as="sourcePoint" />
            <mxPoint x="-10" y="188" as="targetPoint" />
            <Array as="points">
              <mxPoint x="-45" y="184" />
            </Array>
          </mxGeometry>
        </mxCell>
        <mxCell id="zQZUVGZ_dEIv89TSGe0q-16" value="" style="shape=link;html=1;rounded=0;fontSize=12;startSize=8;endSize=8;curved=1;" edge="1" parent="1" source="zQZUVGZ_dEIv89TSGe0q-5" target="zQZUVGZ_dEIv89TSGe0q-11">
          <mxGeometry width="100" relative="1" as="geometry">
            <mxPoint x="44" y="138" as="sourcePoint" />
            <mxPoint x="142" y="204" as="targetPoint" />
          </mxGeometry>
        </mxCell>
        <mxCell id="zQZUVGZ_dEIv89TSGe0q-33" value="" style="endArrow=classic;html=1;rounded=0;fontSize=12;startSize=8;endSize=8;curved=1;exitX=0.8;exitY=0.8;exitDx=0;exitDy=0;exitPerimeter=0;" edge="1" parent="1" source="zQZUVGZ_dEIv89TSGe0q-6">
          <mxGeometry width="50" height="50" relative="1" as="geometry">
            <mxPoint x="-74" y="312" as="sourcePoint" />
            <mxPoint x="187" y="297" as="targetPoint" />
            <Array as="points">
              <mxPoint x="1" y="353" />
              <mxPoint x="79" y="328" />
              <mxPoint x="196" y="300" />
            </Array>
          </mxGeometry>
        </mxCell>
      </root>
    </mxGraphModel>
  </diagram>
</mxfile>
